<?xml version="1.0" encoding="utf-8"?>
<!-- Generator: Adobe Illustrator 18.1.0, SVG Export Plug-In . SVG Version: 6.00 Build 0)  -->
<svg version="1.1" id="Layer_1" xmlns="http://www.w3.org/2000/svg" xmlns:xlink="http://www.w3.org/1999/xlink" x="0px" y="0px"
	 viewBox="65 -11 140 32" enable-background="new 65 -11 140 32" xml:space="preserve">
<g>
	<g id="Guides_For_Artboard_37_">
	</g>
	<g id="Artwork_36_">
	</g>
	<g id="Layer_2_36_">
		<g>
			<rect x="78.6" y="-6.9" fill="none" width="10.4" height="3.5"/>
			<path fill="#1B2327" d="M78.6-6.9h10.4v3.5h3.1v-5c0-0.9-0.7-1.6-1.6-1.6H77c-0.9,0-1.6,0.7-1.6,1.6v5h3.1L78.6-6.9L78.6-6.9z"/>
			<path fill="#F7F1E6" d="M97.3-3.4h-5.2h-3.1H78.6h-3.1h-5.4c-2.3,0-4.2,1.9-4.2,4.2v15.1c0,2.3,1.9,4.2,4.2,4.2h27.2
				c2.3,0,4.2-1.9,4.2-4.2l0-15.1C101.5-1.5,99.6-3.4,97.3-3.4z M83.8,15.7c-3.7,0-6.8-3-6.8-6.8s3-6.8,6.8-6.8c3.7,0,6.8,3,6.8,6.8
				S87.6,15.7,83.8,15.7z"/>
			<path fill="#E74424" d="M83.8,2.1c-3.7,0-6.8,3-6.8,6.8s3,6.8,6.8,6.8c3.7,0,6.8-3,6.8-6.8S87.6,2.1,83.8,2.1z M87.8,9.2
				c0,0.6-0.4,1-1,1h-1.6v1.6c0,0.6-0.4,1-1,1h-0.7c-0.6,0-1-0.4-1-1v-1.6h-1.6c-0.6,0-1-0.4-1-1V8.6c0-0.6,0.4-1,1-1h1.6V6
				c0-0.6,0.4-1,1-1h0.7c0.6,0,1,0.4,1,1v1.6h1.6c0.6,0,1,0.4,1,1V9.2z"/>
			<path fill="#F7F1E6" d="M86.8,7.6h-1.6V6c0-0.6-0.4-1-1-1h-0.7c-0.6,0-1,0.4-1,1v1.6h-1.6c-0.6,0-1,0.4-1,1v0.7c0,0.6,0.4,1,1,1
				h1.6v1.6c0,0.6,0.4,1,1,1h0.7c0.6,0,1-0.4,1-1v-1.6h1.6c0.6,0,1-0.4,1-1V8.6C87.8,8,87.3,7.6,86.8,7.6z"/>
		</g>
	</g>
</g>
</svg>
