<?xml version="1.0" encoding="utf-8"?>
<!-- Generator: Adobe Illustrator 18.1.0, SVG Export Plug-In . SVG Version: 6.00 Build 0)  -->
<svg version="1.1" id="Layer_1" xmlns="http://www.w3.org/2000/svg" xmlns:xlink="http://www.w3.org/1999/xlink" x="0px" y="0px"
	 viewBox="65 -11 140 32" enable-background="new 65 -11 140 32" xml:space="preserve">
<g>
	<g id="Guides_For_Artboard_37_">
	</g>
	<g id="Artwork_36_">
	</g>
	<g id="Layer_2_36_">
		<g>
			<rect x="77.6" y="-4.9" fill="none" width="9.6" height="3.2"/>
			<path fill="#1B2327" d="M77.6-4.9l9.6,0v3.2l2.9,0v-4.7c0-0.8-0.6-1.4-1.4-1.4l-12.5,0c-0.8,0-1.4,0.6-1.4,1.4v4.7l2.9,0
				L77.6-4.9L77.6-4.9z"/>
			<path fill="#F7F1E6" d="M95-1.7l-4.8,0l-2.9,0l-9.6,0l-2.9,0l-5,0c-2.2,0-3.9,1.8-3.9,3.9v14c0,2.2,1.8,3.9,3.9,3.9l25.2,0
				c2.2,0,3.9-1.8,3.9-3.9l0-14C98.9,0.1,97.2-1.7,95-1.7z M82.5,16c-3.5,0-6.3-2.8-6.3-6.3c0-3.5,2.8-6.3,6.3-6.3
				c3.5,0,6.3,2.8,6.3,6.3C88.8,13.2,86,16,82.5,16z"/>
			<path fill="#E74424" d="M82.5,3.4c-3.5,0-6.3,2.8-6.3,6.3c0,3.5,2.8,6.3,6.3,6.3c3.5,0,6.3-2.8,6.3-6.3C88.8,6.2,86,3.4,82.5,3.4
				z M86.2,10c0,0.5-0.4,0.9-0.9,0.9h-1.5v1.5c0,0.5-0.4,0.9-0.9,0.9h-0.6c-0.5,0-0.9-0.4-0.9-0.9V11h-1.5c-0.5,0-0.9-0.4-0.9-0.9
				V9.4c0-0.5,0.4-0.9,0.9-0.9l1.5,0V7c0-0.5,0.4-0.9,0.9-0.9h0.6c0.5,0,0.9,0.4,0.9,0.9v1.5l1.5,0c0.5,0,0.9,0.4,0.9,0.9V10z"/>
			<path fill="#F7F1E6" d="M85.3,8.5l-1.5,0V7c0-0.5-0.4-0.9-0.9-0.9h-0.6c-0.5,0-0.9,0.4-0.9,0.9v1.5l-1.5,0
				c-0.5,0-0.9,0.4-0.9,0.9V10c0,0.5,0.4,0.9,0.9,0.9h1.5v1.5c0,0.5,0.4,0.9,0.9,0.9h0.6c0.5,0,0.9-0.4,0.9-0.9V11h1.5
				c0.5,0,0.9-0.4,0.9-0.9V9.4C86.2,8.9,85.8,8.5,85.3,8.5z"/>
		</g>
	</g>
</g>
</svg>
